<svg enable-background="new 0 0 52.2 44.3" viewBox="0 0 52.2 44.3" xmlns="http://www.w3.org/2000/svg"><path d="m31.6 22h-3.1" fill="none"/><path d="m16.3 25.3c.4-2.1.9-4.1 1.9-5.9.6-1.3 1.5-2.5 2.5-3.5s2.2-1.9 3.5-2.7c.4-.2.8-.4 1.2-.6 1.8-.9 3.8-1.5 5.8-2.1.1 0 .1-.1.2-.1v-8.2c0-.5-.5-1-1-1h-10.4c-.5 0-1 .5-1 1v10.8h-10.8c-.5 0-1 .5-1 1v10.3c0 .5.5 1 1 1zm15.1 8.3c-2.3.6-4.8 1.2-6.7 2.4-.5.3-1 .5-1.5.5-.1 0-.2 0-.3.1 0 .2.1.4.1.6h7.4c.5 0 1-.5 1-1 0-.1 0-2.6 0-2.6z" fill="#016938"/><path d="m45 8.1c-.5 3.5-.5 7.4-1.4 10.8-1.2 4.6-3.8 8.7-7.9 11.1-1 .6-2.2 1.1-3.4 1.5-3.4 1.2-7 1.7-9.9 3.5-.2.2-.4.2-.5.2-2.1.3-.7-6.6 4.3-10.3 1-.8 2.1-1.5 3.2-2.2.2-.1.1-.4-.2-.4 0 0 0 0-.1 0-.9.4-1.9.9-2.8 1.4-3.4 1.8-6 4.4-7 8.3-.9 3.4-.9 7.2.6 10.4.2.4-.3.9-.7.6-.3-.2-.4-.6-.5-.9-.6-1.4-.9-3-1.2-4.5-.6-3.7-.7-7.6 0-11.3.4-2.1.9-4.1 1.8-5.8.5-1.1 1.3-2.2 2.3-3.1 1-1 2.1-1.8 3.3-2.5.4-.2.8-.4 1.2-.6 1.8-.9 3.9-1.5 5.9-2.1 4.2-1.1 8.5-2.1 12-4.8.1-.1.2-.1.3-.1.5 0 .8.3.7.8z" fill="#88c04e"/></svg>